<svg xmlns="http://www.w3.org/2000/svg" viewBox="0 0 346.23 153.57"><defs><style>.cls-1,.cls-2,.cls-3{fill:none;}.cls-1,.cls-2,.cls-3,.cls-4{stroke:#000;}.cls-1{stroke-width:4px;}.cls-2{stroke-width:4.13px;}.cls-3{stroke-miterlimit:10;stroke-width:7.3px;}</style></defs><g id="Ebene_2" data-name="Ebene 2"><g id="Logo_groß" data-name="Logo groß"><path class="cls-1" d="M90.14,123.59a13.75,13.75,0,0,1-3,9,9.67,9.67,0,0,1-7.64,3.37L69,136.06a.56.56,0,0,1-.64-.63v-57a.57.57,0,0,1,.64-.64H79.45a9.77,9.77,0,0,1,7.76,3.38c2,2.24,2.93,5.28,2.93,9.09ZM54.29,151.46h25a34.12,34.12,0,0,0,15.08-3.18,23.48,23.48,0,0,0,10.11-9,25.59,25.59,0,0,0,3.57-13.61V88.23a25.65,25.65,0,0,0-3.57-13.62,23.52,23.52,0,0,0-10.11-9A34.12,34.12,0,0,0,79.32,62.4h-25"/><path class="cls-1" d="M156.29,86.7a1.8,1.8,0,0,1,.77,2l-2.55,14.63c-.08,1-.68,1.32-1.78.9a14.06,14.06,0,0,0-7-.13,9.58,9.58,0,0,0-6.23,3.56,11.15,11.15,0,0,0-2.55,7.38v34.86a1.52,1.52,0,0,1-1.52,1.53H120.54a1.47,1.47,0,0,1-1.08-.45,1.46,1.46,0,0,1-.45-1.08V87.59a1.46,1.46,0,0,1,.45-1.08,1.47,1.47,0,0,1,1.08-.45h14.89A1.52,1.52,0,0,1,137,87.59v5.09c0,.34.07.53.19.57s.28-.06.45-.32q4.46-7.75,12.47-7.76A12.75,12.75,0,0,1,156.29,86.7Z"/><path class="cls-1" d="M273.69,91Q279,96.87,279,107.44v42.49a1.46,1.46,0,0,1-.45,1.08,1.47,1.47,0,0,1-1.08.45H262.55a1.47,1.47,0,0,1-1.08-.45,1.45,1.45,0,0,1-.44-1.08V110a10.49,10.49,0,0,0-2.17-7,7.29,7.29,0,0,0-5.85-2.54,7.52,7.52,0,0,0-6,2.61,10.49,10.49,0,0,0-2.23,7.06v39.82a1.52,1.52,0,0,1-1.53,1.53H228.33a1.44,1.44,0,0,1-1.08-.45,1.46,1.46,0,0,1-.45-1.08V87.59a1.46,1.46,0,0,1,.45-1.08,1.44,1.44,0,0,1,1.08-.45h14.88a1.52,1.52,0,0,1,1.53,1.53v3.56c0,.25.08.4.26.45s.38-.11.63-.45Q250.22,85,259.12,85,268.4,85,273.69,91Z"/><path class="cls-1" d="M290.48,151a1.46,1.46,0,0,1-.45-1.08v-86a1.52,1.52,0,0,1,1.53-1.52h14.89A1.5,1.5,0,0,1,308,63.92v42.5a.53.53,0,0,0,.26.51c.17.08.33,0,.51-.26L323,87a2.09,2.09,0,0,1,1.79-.89h16.15c.85,0,1.28.3,1.28.89a2.12,2.12,0,0,1-.39,1l-15,20.87a.84.84,0,0,0,0,.89l17.3,39.94a1.75,1.75,0,0,1,.13.77c0,.68-.42,1-1.27,1H327.31a1.68,1.68,0,0,1-1.78-1.28l-10.31-27.35c-.08-.25-.21-.38-.38-.38a.73.73,0,0,0-.51.25l-6.1,8.4a2,2,0,0,0-.26.76v18.07a1.52,1.52,0,0,1-1.52,1.53H291.56A1.44,1.44,0,0,1,290.48,151Z"/><path class="cls-2" d="M23.9,2.08H19.53S16,1.58,16,6.09V12h1.12V44.23a11.46,11.46,0,0,1-4.17,9.06,9.65,9.65,0,0,1-.81.56c-2.2,1.43-10.92,8.35-10,27.79,1.09,22.89,0,71.88,0,71.88"/><path class="cls-2" d="M23.74,2.08h4.83s3.92-.5,3.92,4V12H31.25V44.23a10.94,10.94,0,0,0,4.62,9.06c.26.19.61.39.89.56,2.43,1.43,12.09,8.35,11.06,27.79-1.21,22.89,0,71.88,0,71.88"/><polyline class="cls-3" points="32.49 11.12 189.46 11.12 189.46 25.7"/><ellipse class="cls-1" cx="191.36" cy="89.38" rx="24.36" ry="3.84"/><path class="cls-1" d="M167.17,89.56l7,56.24s4,5.26,17.51,5.34"/><path class="cls-1" d="M215.52,89.56l-7,56.24s-4,5.26-17.51,5.34"/><path d="M194.9,44.74a6.94,6.94,0,0,1-1.05,3.95,5,5,0,0,1-2.66,2.14,4.88,4.88,0,0,1-4.8-.8,5.9,5.9,0,0,1-2.19-4,8.64,8.64,0,0,1,.63-4.53,18.07,18.07,0,0,1,1.57-2.95,23.85,23.85,0,0,0,2.53-5.2,12.36,12.36,0,0,0,.41-1.59c0-.12,0-.28.17-.28s.15.16.17.28A15.7,15.7,0,0,0,191,35.69a39.8,39.8,0,0,0,2.17,3.83,11.88,11.88,0,0,1,1.62,4.22A7.43,7.43,0,0,1,194.9,44.74Z"/><path d="M200.19,69.76a6.9,6.9,0,0,1-1,4,5.09,5.09,0,0,1-2.67,2.15,4.9,4.9,0,0,1-4.8-.8,6,6,0,0,1-2.18-4,8.67,8.67,0,0,1,.62-4.54,19.59,19.59,0,0,1,1.58-3,23.93,23.93,0,0,0,2.53-5.21,12.1,12.1,0,0,0,.41-1.6c0-.11,0-.27.16-.27s.15.15.18.28a16.33,16.33,0,0,0,1.33,3.9c.64,1.35,1.42,2.59,2.17,3.84a11.74,11.74,0,0,1,1.63,4.24A5.88,5.88,0,0,1,200.19,69.76Z"/><path class="cls-4" d="M11.23,108.54c2,0,5.78,3,7.33,5.24a14.63,14.63,0,0,1,2.77,6.71c3.94,2.29,7.23,4.18,10.58,7.63,2.6-2.84,4.83-6,5-10.48a7.47,7.47,0,0,0-1-4.14,1.15,1.15,0,0,1-.31-.82c0-.21.27-.24.55,0a7.59,7.59,0,0,1,2.63,6.3c-.1,3.46-2.5,6.58-6.13,10,3.33,3.69,5.69,8.15,5.89,12.74.24,5.51-2.7,9.17-6.3,9.17a5.44,5.44,0,0,1-1.06-.1c-4.55-.89-6.78-5.51-6.78-9.86a13.32,13.32,0,0,1,.24-2.37c.89-4.24,3.91-7.05,5.86-9-2.74-3.15-5.72-4.9-9-7.12,0,.47,0,1,0,1.5s-.24.76-.48.69-.44-.35-.44-.79c0-.62,0-1.27,0-2a51.31,51.31,0,0,1-8.15-6.65c-1.37-1.5-2.64-3.59-2.64-5.06a1.76,1.76,0,0,1,.35-1.1A1.25,1.25,0,0,1,11.23,108.54Zm14.14,30.68a11,11,0,0,0-.14,1.78c0,4.28,2.33,8.05,5.89,8.6,2.67.41,4.93-2,4.93-6.31a13.71,13.71,0,0,0-.1-1.64,22.26,22.26,0,0,0-4.79-11.33C28.93,132.37,26,135.49,25.37,139.22ZM12.9,114.39A33.78,33.78,0,0,0,20.4,120a13,13,0,0,0-2.08-5.34c-2.64-3.83-6.79-5.61-7.33-4.48C10.58,111.07,11.09,112.61,12.9,114.39Z"/><path class="cls-4" d="M31.09,94.36a40.11,40.11,0,0,1,4.52,5.24c1.13,1.61,3,5,3,7.77a3.77,3.77,0,0,1-.55,2.16A3,3,0,0,1,35.34,111c-1.89,0-4.28-1.23-6.41-3.29-2.77-2.7-4.62-6.3-4.62-8.46A2,2,0,0,1,24.65,98c.93-1.27,4.35,2.12,5.86,4.24a15.91,15.91,0,0,1,2.5,5.58,5.36,5.36,0,0,0,1.85.38,2.22,2.22,0,0,0,2-.92,3,3,0,0,0,.51-1.78c0-2-1.44-4.25-2.22-5.35a43.7,43.7,0,0,0-4.49-5.06c-.48-.38-.55-.72-.41-.86S30.71,94.05,31.09,94.36Zm-2.3,10.82a12.82,12.82,0,0,0,3.33,2.23,14.55,14.55,0,0,0-2.26-4.69c-1.44-2.06-4-4.7-4.63-4.11S26.16,102.58,28.79,105.18Z"/><path d="M18.38,101a3.48,3.48,0,0,0-2.74-1c-.43-.17-.3-1.15.14-1.44a2.83,2.83,0,0,1,3.78.32c1.84,1.91,1.77,6.48,1.54,9.08-.05.48-.25.79-.52.65C20.49,107.14,20.46,103.09,18.38,101Z"/></g></g></svg>